TITLE: Awesome Project 1
FCM: NON-DROP FRAME

001  AX       V     C        01:04:57:13 01:04:59:00 01:00:00:00 01:00:01:11
* FROM CLIP NAME:  InglouriousBastards  

001  AX       A     C        01:04:57:13 01:04:59:00 01:00:00:00 01:00:01:11
* FROM CLIP NAME:  InglouriousBastards 

002  AX       V     C        01:04:59:13 01:05:02:05 01:00:01:11 01:00:04:03
* FROM CLIP NAME:  InglouriousBastards  

002  AX       A     C        01:04:59:13 01:05:02:05 01:00:01:11 01:00:04:03
* FROM CLIP NAME:  InglouriousBastards 

003  AX       V     C        01:06:11:11 01:06:15:08 01:00:04:03 01:00:08:00
* FROM CLIP NAME:  InglouriousBastards  

003  AX       A     C        01:06:11:11 01:06:15:08 01:00:04:03 01:00:08:00
* FROM CLIP NAME:  InglouriousBastards 

004  AX       V     C        01:06:16:15 01:06:18:02 01:00:08:00 01:00:09:11
* FROM CLIP NAME:  InglouriousBastards  

004  AX       A     C        01:06:16:15 01:06:18:02 01:00:08:00 01:00:09:11
* FROM CLIP NAME:  InglouriousBastards 

005  AX       V     C        02:23:58:23 02:23:59:23 01:00:09:11 01:00:10:11
* FROM CLIP NAME:  InglouriousBastards  

005  AX       A     C        02:23:58:23 02:23:59:23 01:00:09:11 01:00:10:11
* FROM CLIP NAME:  InglouriousBastards 

006  AX       V     C        02:53:33:01 02:53:34:03 01:00:10:11 01:00:11:13
* FROM CLIP NAME:  InglouriousBastards  

006  AX       A     C        02:53:33:01 02:53:34:03 01:00:10:11 01:00:11:13
* FROM CLIP NAME:  InglouriousBastards 

007  AX       V     C        01:49:36:07 01:49:37:20 01:00:11:13 01:00:13:02
* FROM CLIP NAME:  InglouriousBastards  

007  AX       A     C        01:49:36:07 01:49:37:20 01:00:11:13 01:00:13:02
* FROM CLIP NAME:  InglouriousBastards 

008  AX       V     C        01:49:42:12 01:49:44:01 01:00:13:02 01:00:14:15
* FROM CLIP NAME:  InglouriousBastards  

008  AX       A     C        01:49:42:12 01:49:44:01 01:00:13:02 01:00:14:15
* FROM CLIP NAME:  InglouriousBastards 

009  AX       V     C        02:26:13:20 02:26:14:22 01:00:14:15 01:00:15:17
* FROM CLIP NAME:  InglouriousBastards  

009  AX       A     C        02:26:13:20 02:26:14:22 01:00:14:15 01:00:15:17
* FROM CLIP NAME:  InglouriousBastards 

010  AX       V     C        02:27:12:09 02:27:13:10 01:00:15:17 01:00:16:18
* FROM CLIP NAME:  InglouriousBastards  

010  AX       A     C        02:27:12:09 02:27:13:10 01:00:15:17 01:00:16:18
* FROM CLIP NAME:  InglouriousBastards 

011  AX       V     C        02:18:03:12 02:18:05:07 01:00:16:18 01:00:18:13
* FROM CLIP NAME:  InglouriousBastards  

011  AX       A     C        02:18:03:12 02:18:05:07 01:00:16:18 01:00:18:13
* FROM CLIP NAME:  InglouriousBastards 

012  AX       V     C        02:18:05:09 02:18:06:09 01:00:18:13 01:00:19:13
* FROM CLIP NAME:  InglouriousBastards  

012  AX       A     C        02:18:05:09 02:18:06:09 01:00:18:13 01:00:19:13
* FROM CLIP NAME:  InglouriousBastards 

013  AX       V     C        02:35:36:03 02:35:38:05 01:00:19:13 01:00:21:15
* FROM CLIP NAME:  InglouriousBastards  

013  AX       A     C        02:35:36:03 02:35:38:05 01:00:19:13 01:00:21:15
* FROM CLIP NAME:  InglouriousBastards 

014  AX       V     C        02:36:46:12 02:36:48:02 01:00:21:15 01:00:23:05
* FROM CLIP NAME:  InglouriousBastards  

014  AX       A     C        02:36:46:12 02:36:48:02 01:00:21:15 01:00:23:05
* FROM CLIP NAME:  InglouriousBastards 

015  AX       V     C        03:22:52:19 03:22:54:18 01:00:23:05 01:00:25:04
* FROM CLIP NAME:  InglouriousBastards  

015  AX       A     C        03:22:52:19 03:22:54:18 01:00:23:05 01:00:25:04
* FROM CLIP NAME:  InglouriousBastards 

016  AX       V     C        03:22:56:07 03:22:57:22 01:00:25:04 01:00:26:19
* FROM CLIP NAME:  InglouriousBastards  

016  AX       A     C        03:22:56:07 03:22:57:22 01:00:25:04 01:00:26:19
* FROM CLIP NAME:  InglouriousBastards 

017  AX       V     C        01:23:47:16 01:23:50:13 01:00:26:19 01:00:29:16
* FROM CLIP NAME:  InglouriousBastards  

017  AX       A     C        01:23:47:16 01:23:50:13 01:00:26:19 01:00:29:16
* FROM CLIP NAME:  InglouriousBastards 

018  AX       V     C        01:23:50:23 01:23:53:13 01:00:29:16 01:00:32:06
* FROM CLIP NAME:  InglouriousBastards  

018  AX       A     C        01:23:50:23 01:23:53:13 01:00:29:16 01:00:32:06
* FROM CLIP NAME:  InglouriousBastards 

019  AX       V     C        01:24:00:20 01:24:02:18 01:00:32:06 01:00:34:04
* FROM CLIP NAME:  InglouriousBastards  

019  AX       A     C        01:24:00:20 01:24:02:18 01:00:32:06 01:00:34:04
* FROM CLIP NAME:  InglouriousBastards 

020  AX       V     C        01:24:03:13 01:24:08:18 01:00:34:04 01:00:39:09
* FROM CLIP NAME:  InglouriousBastards  

020  AX       A     C        01:24:03:13 01:24:08:18 01:00:34:04 01:00:39:09
* FROM CLIP NAME:  InglouriousBastards 

021  AX       V     C        01:23:37:13 01:23:38:17 01:00:39:09 01:00:40:13
* FROM CLIP NAME:  InglouriousBastards  

021  AX       A     C        01:23:37:13 01:23:38:17 01:00:39:09 01:00:40:13
* FROM CLIP NAME:  InglouriousBastards 

022  AX       V     C        01:23:38:19 01:23:40:17 01:00:40:13 01:00:42:11
* FROM CLIP NAME:  InglouriousBastards  

022  AX       A     C        01:23:38:19 01:23:40:17 01:00:40:13 01:00:42:11
* FROM CLIP NAME:  InglouriousBastards 

023  AX       V     C        02:20:57:05 02:20:58:18 01:00:42:11 01:00:44:00
* FROM CLIP NAME:  InglouriousBastards  

023  AX       A     C        02:20:57:05 02:20:58:18 01:00:42:11 01:00:44:00
* FROM CLIP NAME:  InglouriousBastards 

024  AX       V     C        02:21:49:20 02:21:50:20 01:00:44:00 01:00:45:00
* FROM CLIP NAME:  InglouriousBastards  

024  AX       A     C        02:21:49:20 02:21:50:20 01:00:44:00 01:00:45:00
* FROM CLIP NAME:  InglouriousBastards 

025  AX       V     C        02:25:39:05 02:25:40:07 01:00:45:00 01:00:46:02
* FROM CLIP NAME:  InglouriousBastards  

025  AX       A     C        02:25:39:05 02:25:40:07 01:00:45:00 01:00:46:02
* FROM CLIP NAME:  InglouriousBastards 

026  AX       V     C        02:26:05:13 02:26:06:19 01:00:46:02 01:00:47:08
* FROM CLIP NAME:  InglouriousBastards  

026  AX       A     C        02:26:05:13 02:26:06:19 01:00:46:02 01:00:47:08
* FROM CLIP NAME:  InglouriousBastards 

027  AX       V     C        02:25:51:18 02:25:52:20 01:00:47:08 01:00:48:10
* FROM CLIP NAME:  InglouriousBastards  

027  AX       A     C        02:25:51:18 02:25:52:20 01:00:47:08 01:00:48:10
* FROM CLIP NAME:  InglouriousBastards 

028  AX       V     C        02:26:40:19 02:26:41:21 01:00:48:10 01:00:49:12
* FROM CLIP NAME:  InglouriousBastards  

028  AX       A     C        02:26:40:19 02:26:41:21 01:00:48:10 01:00:49:12
* FROM CLIP NAME:  InglouriousBastards 

029  AX       V     C        02:26:45:07 02:26:46:07 01:00:49:12 01:00:50:12
* FROM CLIP NAME:  InglouriousBastards  

029  AX       A     C        02:26:45:07 02:26:46:07 01:00:49:12 01:00:50:12
* FROM CLIP NAME:  InglouriousBastards 

030  AX       V     C        02:26:52:11 02:26:53:11 01:00:50:12 01:00:51:12
* FROM CLIP NAME:  InglouriousBastards  

030  AX       A     C        02:26:52:11 02:26:53:11 01:00:50:12 01:00:51:12
* FROM CLIP NAME:  InglouriousBastards 

031  AX       V     C        02:26:56:06 02:26:57:08 01:00:51:12 01:00:52:14
* FROM CLIP NAME:  InglouriousBastards  

031  AX       A     C        02:26:56:06 02:26:57:08 01:00:51:12 01:00:52:14
* FROM CLIP NAME:  InglouriousBastards 

032  AX       V     C        01:24:12:21 01:24:14:13 01:00:52:14 01:00:54:06
* FROM CLIP NAME:  InglouriousBastards  

032  AX       A     C        01:24:12:21 01:24:14:13 01:00:52:14 01:00:54:06
* FROM CLIP NAME:  InglouriousBastards 

033  AX       V     C        02:25:27:00 02:25:28:01 01:00:54:06 01:00:55:07
* FROM CLIP NAME:  InglouriousBastards  

033  AX       A     C        02:25:27:00 02:25:28:01 01:00:54:06 01:00:55:07
* FROM CLIP NAME:  InglouriousBastards 

034  AX       V     C        02:25:29:17 02:25:30:18 01:00:55:07 01:00:56:08
* FROM CLIP NAME:  InglouriousBastards  

034  AX       A     C        02:25:29:17 02:25:30:18 01:00:55:07 01:00:56:08
* FROM CLIP NAME:  InglouriousBastards 

035  AX       V     C        02:26:59:00 02:27:00:13 01:00:56:08 01:00:57:21
* FROM CLIP NAME:  InglouriousBastards  

035  AX       A     C        02:26:59:00 02:27:00:13 01:00:56:08 01:00:57:21
* FROM CLIP NAME:  InglouriousBastards 

036  AX       V     C        03:04:13:15 03:04:15:04 01:00:57:21 01:00:59:10
* FROM CLIP NAME:  InglouriousBastards  

036  AX       A     C        03:04:13:15 03:04:15:04 01:00:57:21 01:00:59:10
* FROM CLIP NAME:  InglouriousBastards 

037  AX       V     C        02:41:48:18 02:41:51:08 01:00:59:10 01:01:02:00
* FROM CLIP NAME:  InglouriousBastards  

037  AX       A     C        02:41:48:18 02:41:51:08 01:00:59:10 01:01:02:00
* FROM CLIP NAME:  InglouriousBastards 

038  AX       V     C        02:42:06:09 02:42:08:01 01:01:02:00 01:01:03:16
* FROM CLIP NAME:  InglouriousBastards  

038  AX       A     C        02:42:06:09 02:42:08:01 01:01:02:00 01:01:03:16
* FROM CLIP NAME:  InglouriousBastards 

039  AX       V     C        02:28:00:08 02:28:01:12 01:01:03:16 01:01:04:20
* FROM CLIP NAME:  InglouriousBastards  

039  AX       A     C        02:28:00:08 02:28:01:12 01:01:03:16 01:01:04:20
* FROM CLIP NAME:  InglouriousBastards 

040  AX       V     C        01:32:57:11 01:32:59:02 01:01:04:20 01:01:06:11
* FROM CLIP NAME:  InglouriousBastards  

040  AX       A     C        01:32:57:11 01:32:59:02 01:01:04:20 01:01:06:11
* FROM CLIP NAME:  InglouriousBastards 

041  AX       V     C        01:32:59:05 01:33:01:05 01:01:06:11 01:01:08:11
* FROM CLIP NAME:  InglouriousBastards  

041  AX       A     C        01:32:59:05 01:33:01:05 01:01:06:11 01:01:08:11
* FROM CLIP NAME:  InglouriousBastards 

042  AX       V     C        02:24:07:13 02:24:08:14 01:01:08:11 01:01:09:12
* FROM CLIP NAME:  InglouriousBastards  

042  AX       A     C        02:24:07:13 02:24:08:14 01:01:08:11 01:01:09:12
* FROM CLIP NAME:  InglouriousBastards 

043  AX       V     C        02:24:32:07 02:24:33:07 01:01:09:12 01:01:10:12
* FROM CLIP NAME:  InglouriousBastards  

043  AX       A     C        02:24:32:07 02:24:33:07 01:01:09:12 01:01:10:12
* FROM CLIP NAME:  InglouriousBastards 

044  AX       V     C        01:57:02:01 01:57:03:01 01:01:10:12 01:01:11:12
* FROM CLIP NAME:  InglouriousBastards  

044  AX       A     C        01:57:02:01 01:57:03:01 01:01:10:12 01:01:11:12
* FROM CLIP NAME:  InglouriousBastards 

045  AX       V     C        01:58:29:19 01:58:30:19 01:01:11:12 01:01:12:12
* FROM CLIP NAME:  InglouriousBastards  

045  AX       A     C        01:58:29:19 01:58:30:19 01:01:11:12 01:01:12:12
* FROM CLIP NAME:  InglouriousBastards 

046  AX       V     C        02:47:20:18 02:47:22:06 01:01:12:12 01:01:14:00
* FROM CLIP NAME:  InglouriousBastards  

046  AX       A     C        02:47:20:18 02:47:22:06 01:01:12:12 01:01:14:00
* FROM CLIP NAME:  InglouriousBastards 

047  AX       V     C        02:47:55:12 02:47:56:13 01:01:14:00 01:01:15:01
* FROM CLIP NAME:  InglouriousBastards  

047  AX       A     C        02:47:55:12 02:47:56:13 01:01:14:00 01:01:15:01
* FROM CLIP NAME:  InglouriousBastards 

048  AX       V     C        02:53:48:22 02:53:49:23 01:01:15:01 01:01:16:02
* FROM CLIP NAME:  InglouriousBastards  

048  AX       A     C        02:53:48:22 02:53:49:23 01:01:15:01 01:01:16:02
* FROM CLIP NAME:  InglouriousBastards 

049  AX       V     C        03:06:38:21 03:06:40:10 01:01:16:02 01:01:17:15
* FROM CLIP NAME:  InglouriousBastards  

049  AX       A     C        03:06:38:21 03:06:40:10 01:01:16:02 01:01:17:15
* FROM CLIP NAME:  InglouriousBastards 

050  AX       V     C        03:07:37:10 03:07:39:03 01:01:17:15 01:01:19:08
* FROM CLIP NAME:  InglouriousBastards  

050  AX       A     C        03:07:37:10 03:07:39:03 01:01:17:15 01:01:19:08
* FROM CLIP NAME:  InglouriousBastards 

051  AX       V     C        03:16:02:06 03:16:03:09 01:01:19:08 01:01:20:11
* FROM CLIP NAME:  InglouriousBastards  

051  AX       A     C        03:16:02:06 03:16:03:09 01:01:19:08 01:01:20:11
* FROM CLIP NAME:  InglouriousBastards 

052  AX       V     C        03:16:03:10 03:16:05:03 01:01:20:11 01:01:22:04
* FROM CLIP NAME:  InglouriousBastards  

052  AX       A     C        03:16:03:10 03:16:05:03 01:01:20:11 01:01:22:04
* FROM CLIP NAME:  InglouriousBastards 

053  AX       V     C        03:19:29:21 03:19:31:12 01:01:22:04 01:01:23:19
* FROM CLIP NAME:  InglouriousBastards  

053  AX       A     C        03:19:29:21 03:19:31:12 01:01:22:04 01:01:23:19
* FROM CLIP NAME:  InglouriousBastards 

054  AX       V     C        01:46:46:02 01:46:47:15 01:01:23:19 01:01:25:08
* FROM CLIP NAME:  InglouriousBastards  

054  AX       A     C        01:46:46:02 01:46:47:15 01:01:23:19 01:01:25:08
* FROM CLIP NAME:  InglouriousBastards 

