TITLE: Awesome Project 1
FCM: NON-DROP FRAME

001  AX       V     C        00:08:02:13 00:08:05:09 01:00:00:00 01:00:02:20
* FROM CLIP NAME:  Episode 21 Mr. Thousand Satellites  

001  AX       A     C        00:08:02:13 00:08:05:09 01:00:00:00 01:00:02:20
* FROM CLIP NAME:  Episode 21 Mr. Thousand Satellites 

002  AX       V     C        00:08:05:21 00:08:09:05 01:00:02:20 01:00:06:04
* FROM CLIP NAME:  Episode 21 Mr. Thousand Satellites  

002  AX       A     C        00:08:05:21 00:08:09:05 01:00:02:20 01:00:06:04
* FROM CLIP NAME:  Episode 21 Mr. Thousand Satellites 

003  AX       V     C        00:08:09:11 00:08:11:18 01:00:06:04 01:00:08:11
* FROM CLIP NAME:  Episode 21 Mr. Thousand Satellites  

003  AX       A     C        00:08:09:11 00:08:11:18 01:00:06:04 01:00:08:11
* FROM CLIP NAME:  Episode 21 Mr. Thousand Satellites 

004  AX       V     C        00:08:12:06 00:08:15:14 01:00:08:11 01:00:11:19
* FROM CLIP NAME:  Episode 21 Mr. Thousand Satellites  

004  AX       A     C        00:08:12:06 00:08:15:14 01:00:08:11 01:00:11:19
* FROM CLIP NAME:  Episode 21 Mr. Thousand Satellites 

005  AX       V     C        00:08:15:20 00:08:16:21 01:00:11:19 01:00:12:20
* FROM CLIP NAME:  Episode 21 Mr. Thousand Satellites  

005  AX       A     C        00:08:15:20 00:08:16:21 01:00:11:19 01:00:12:20
* FROM CLIP NAME:  Episode 21 Mr. Thousand Satellites 

006  AX       V     C        00:08:17:03 00:08:19:23 01:00:12:20 01:00:15:16
* FROM CLIP NAME:  Episode 21 Mr. Thousand Satellites  

006  AX       A     C        00:08:17:03 00:08:19:23 01:00:12:20 01:00:15:16
* FROM CLIP NAME:  Episode 21 Mr. Thousand Satellites 

007  AX       V     C        00:08:20:11 00:08:21:18 01:00:15:16 01:00:16:23
* FROM CLIP NAME:  Episode 21 Mr. Thousand Satellites  

007  AX       A     C        00:08:20:11 00:08:21:18 01:00:15:16 01:00:16:23
* FROM CLIP NAME:  Episode 21 Mr. Thousand Satellites 

008  AX       V     C        00:08:22:00 00:08:23:13 01:00:16:23 01:00:18:12
* FROM CLIP NAME:  Episode 21 Mr. Thousand Satellites  

008  AX       A     C        00:08:22:00 00:08:23:13 01:00:16:23 01:00:18:12
* FROM CLIP NAME:  Episode 21 Mr. Thousand Satellites 

009  AX       V     C        00:08:23:19 00:08:29:22 01:00:18:12 01:00:24:15
* FROM CLIP NAME:  Episode 21 Mr. Thousand Satellites  

009  AX       A     C        00:08:23:19 00:08:29:22 01:00:18:12 01:00:24:15
* FROM CLIP NAME:  Episode 21 Mr. Thousand Satellites 

010  AX       V     C        00:08:30:04 00:08:33:12 01:00:24:15 01:00:27:23
* FROM CLIP NAME:  Episode 21 Mr. Thousand Satellites  

010  AX       A     C        00:08:30:04 00:08:33:12 01:00:24:15 01:00:27:23
* FROM CLIP NAME:  Episode 21 Mr. Thousand Satellites 

011  AX       V     C        00:08:33:18 00:08:35:01 01:00:27:23 01:00:29:06
* FROM CLIP NAME:  Episode 21 Mr. Thousand Satellites  

011  AX       A     C        00:08:33:18 00:08:35:01 01:00:27:23 01:00:29:06
* FROM CLIP NAME:  Episode 21 Mr. Thousand Satellites 

012  AX       V     C        00:08:35:13 00:08:37:15 01:00:29:06 01:00:31:08
* FROM CLIP NAME:  Episode 21 Mr. Thousand Satellites  

012  AX       A     C        00:08:35:13 00:08:37:15 01:00:29:06 01:00:31:08
* FROM CLIP NAME:  Episode 21 Mr. Thousand Satellites 

013  AX       V     C        00:08:38:03 00:08:39:10 01:00:31:08 01:00:32:15
* FROM CLIP NAME:  Episode 21 Mr. Thousand Satellites  

013  AX       A     C        00:08:38:03 00:08:39:10 01:00:31:08 01:00:32:15
* FROM CLIP NAME:  Episode 21 Mr. Thousand Satellites 

014  AX       V     C        00:08:39:22 00:08:43:00 01:00:32:15 01:00:35:17
* FROM CLIP NAME:  Episode 21 Mr. Thousand Satellites  

014  AX       A     C        00:08:39:22 00:08:43:00 01:00:32:15 01:00:35:17
* FROM CLIP NAME:  Episode 21 Mr. Thousand Satellites 

015  AX       V     C        00:08:43:06 00:08:44:00 01:00:35:17 01:00:36:11
* FROM CLIP NAME:  Episode 21 Mr. Thousand Satellites  

015  AX       A     C        00:08:43:06 00:08:44:00 01:00:35:17 01:00:36:11
* FROM CLIP NAME:  Episode 21 Mr. Thousand Satellites 

016  AX       V     C        00:08:44:13 00:08:45:19 01:00:36:11 01:00:37:17
* FROM CLIP NAME:  Episode 21 Mr. Thousand Satellites  

016  AX       A     C        00:08:44:13 00:08:45:19 01:00:36:11 01:00:37:17
* FROM CLIP NAME:  Episode 21 Mr. Thousand Satellites 

017  AX       V     C        00:08:46:14 00:08:47:14 01:00:37:17 01:00:38:17
* FROM CLIP NAME:  Episode 21 Mr. Thousand Satellites  

017  AX       A     C        00:08:46:14 00:08:47:14 01:00:37:17 01:00:38:17
* FROM CLIP NAME:  Episode 21 Mr. Thousand Satellites 

018  AX       V     C        00:08:48:03 00:08:51:10 01:00:38:17 01:00:42:00
* FROM CLIP NAME:  Episode 21 Mr. Thousand Satellites  

018  AX       A     C        00:08:48:03 00:08:51:10 01:00:38:17 01:00:42:00
* FROM CLIP NAME:  Episode 21 Mr. Thousand Satellites 

019  AX       V     C        00:08:51:17 00:08:57:20 01:00:42:00 01:00:48:03
* FROM CLIP NAME:  Episode 21 Mr. Thousand Satellites  

019  AX       A     C        00:08:51:17 00:08:57:20 01:00:42:00 01:00:48:03
* FROM CLIP NAME:  Episode 21 Mr. Thousand Satellites 

020  AX       V     C        00:08:58:02 00:09:04:06 01:00:48:03 01:00:54:07
* FROM CLIP NAME:  Episode 21 Mr. Thousand Satellites  

020  AX       A     C        00:08:58:02 00:09:04:06 01:00:48:03 01:00:54:07
* FROM CLIP NAME:  Episode 21 Mr. Thousand Satellites 

021  AX       V     C        00:09:04:12 00:09:08:02 01:00:54:07 01:00:57:21
* FROM CLIP NAME:  Episode 21 Mr. Thousand Satellites  

021  AX       A     C        00:09:04:12 00:09:08:02 01:00:54:07 01:00:57:21
* FROM CLIP NAME:  Episode 21 Mr. Thousand Satellites 

022  AX       V     C        00:09:09:02 00:09:09:21 01:00:57:21 01:00:58:16
* FROM CLIP NAME:  Episode 21 Mr. Thousand Satellites  

022  AX       A     C        00:09:09:02 00:09:09:21 01:00:57:21 01:00:58:16
* FROM CLIP NAME:  Episode 21 Mr. Thousand Satellites 

023  AX       V     C        00:09:10:09 00:09:12:23 01:00:58:16 01:01:01:06
* FROM CLIP NAME:  Episode 21 Mr. Thousand Satellites  

023  AX       A     C        00:09:10:09 00:09:12:23 01:00:58:16 01:01:01:06
* FROM CLIP NAME:  Episode 21 Mr. Thousand Satellites 

024  AX       V     C        00:09:13:11 00:09:16:06 01:01:01:06 01:01:04:01
* FROM CLIP NAME:  Episode 21 Mr. Thousand Satellites  

024  AX       A     C        00:09:13:11 00:09:16:06 01:01:01:06 01:01:04:01
* FROM CLIP NAME:  Episode 21 Mr. Thousand Satellites 

025  AX       V     C        00:09:16:13 00:09:17:19 01:01:04:01 01:01:05:07
* FROM CLIP NAME:  Episode 21 Mr. Thousand Satellites  

025  AX       A     C        00:09:16:13 00:09:17:19 01:01:04:01 01:01:05:07
* FROM CLIP NAME:  Episode 21 Mr. Thousand Satellites 

026  AX       V     C        00:09:18:01 00:09:20:03 01:01:05:07 01:01:07:09
* FROM CLIP NAME:  Episode 21 Mr. Thousand Satellites  

026  AX       A     C        00:09:18:01 00:09:20:03 01:01:05:07 01:01:07:09
* FROM CLIP NAME:  Episode 21 Mr. Thousand Satellites 

027  AX       V     C        00:09:20:09 00:09:22:04 01:01:07:09 01:01:09:04
* FROM CLIP NAME:  Episode 21 Mr. Thousand Satellites  

027  AX       A     C        00:09:20:09 00:09:22:04 01:01:07:09 01:01:09:04
* FROM CLIP NAME:  Episode 21 Mr. Thousand Satellites 

028  AX       V     C        00:11:45:18 00:11:48:20 01:01:09:04 01:01:12:06
* FROM CLIP NAME:  Episode 21 Mr. Thousand Satellites  

028  AX       A     C        00:11:45:18 00:11:48:20 01:01:09:04 01:01:12:06
* FROM CLIP NAME:  Episode 21 Mr. Thousand Satellites 

029  AX       V     C        00:11:49:02 00:11:51:22 01:01:12:06 01:01:15:02
* FROM CLIP NAME:  Episode 21 Mr. Thousand Satellites  

029  AX       A     C        00:11:49:02 00:11:51:22 01:01:12:06 01:01:15:02
* FROM CLIP NAME:  Episode 21 Mr. Thousand Satellites 

030  AX       V     C        00:11:52:04 00:11:53:23 01:01:15:02 01:01:16:21
* FROM CLIP NAME:  Episode 21 Mr. Thousand Satellites  

030  AX       A     C        00:11:52:04 00:11:53:23 01:01:15:02 01:01:16:21
* FROM CLIP NAME:  Episode 21 Mr. Thousand Satellites 

031  AX       V     C        00:11:54:05 00:11:59:02 01:01:16:21 01:01:21:18
* FROM CLIP NAME:  Episode 21 Mr. Thousand Satellites  

031  AX       A     C        00:11:54:05 00:11:59:02 01:01:16:21 01:01:21:18
* FROM CLIP NAME:  Episode 21 Mr. Thousand Satellites 

032  AX       V     C        00:11:59:20 00:12:00:15 01:01:21:18 01:01:22:13
* FROM CLIP NAME:  Episode 21 Mr. Thousand Satellites  

032  AX       A     C        00:11:59:20 00:12:00:15 01:01:21:18 01:01:22:13
* FROM CLIP NAME:  Episode 21 Mr. Thousand Satellites 

033  AX       V     C        00:12:00:21 00:12:01:22 01:01:22:13 01:01:23:14
* FROM CLIP NAME:  Episode 21 Mr. Thousand Satellites  

033  AX       A     C        00:12:00:21 00:12:01:22 01:01:22:13 01:01:23:14
* FROM CLIP NAME:  Episode 21 Mr. Thousand Satellites 

034  AX       V     C        00:12:02:04 00:12:03:17 01:01:23:14 01:01:25:03
* FROM CLIP NAME:  Episode 21 Mr. Thousand Satellites  

034  AX       A     C        00:12:02:04 00:12:03:17 01:01:23:14 01:01:25:03
* FROM CLIP NAME:  Episode 21 Mr. Thousand Satellites 

035  AX       V     C        00:12:04:05 00:12:06:18 01:01:25:03 01:01:27:16
* FROM CLIP NAME:  Episode 21 Mr. Thousand Satellites  

035  AX       A     C        00:12:04:05 00:12:06:18 01:01:25:03 01:01:27:16
* FROM CLIP NAME:  Episode 21 Mr. Thousand Satellites 

036  AX       V     C        00:12:07:00 00:12:07:19 01:01:27:16 01:01:28:11
* FROM CLIP NAME:  Episode 21 Mr. Thousand Satellites  

036  AX       A     C        00:12:07:00 00:12:07:19 01:01:27:16 01:01:28:11
* FROM CLIP NAME:  Episode 21 Mr. Thousand Satellites 

037  AX       V     C        00:12:08:01 00:12:10:02 01:01:28:11 01:01:30:12
* FROM CLIP NAME:  Episode 21 Mr. Thousand Satellites  

037  AX       A     C        00:12:08:01 00:12:10:02 01:01:28:11 01:01:30:12
* FROM CLIP NAME:  Episode 21 Mr. Thousand Satellites 

038  AX       V     C        00:12:10:08 00:12:11:21 01:01:30:12 01:01:32:01
* FROM CLIP NAME:  Episode 21 Mr. Thousand Satellites  

038  AX       A     C        00:12:10:08 00:12:11:21 01:01:30:12 01:01:32:01
* FROM CLIP NAME:  Episode 21 Mr. Thousand Satellites 

039  AX       V     C        00:12:12:09 00:12:13:10 01:01:32:01 01:01:33:02
* FROM CLIP NAME:  Episode 21 Mr. Thousand Satellites  

039  AX       A     C        00:12:12:09 00:12:13:10 01:01:32:01 01:01:33:02
* FROM CLIP NAME:  Episode 21 Mr. Thousand Satellites 

040  AX       V     C        00:12:13:22 00:12:17:06 01:01:33:02 01:01:36:10
* FROM CLIP NAME:  Episode 21 Mr. Thousand Satellites  

040  AX       A     C        00:12:13:22 00:12:17:06 01:01:33:02 01:01:36:10
* FROM CLIP NAME:  Episode 21 Mr. Thousand Satellites 

041  AX       V     C        00:12:17:18 00:12:19:13 01:01:36:10 01:01:38:05
* FROM CLIP NAME:  Episode 21 Mr. Thousand Satellites  

041  AX       A     C        00:12:17:18 00:12:19:13 01:01:36:10 01:01:38:05
* FROM CLIP NAME:  Episode 21 Mr. Thousand Satellites 

042  AX       V     C        00:12:19:20 00:12:22:09 01:01:38:05 01:01:40:18
* FROM CLIP NAME:  Episode 21 Mr. Thousand Satellites  

042  AX       A     C        00:12:19:20 00:12:22:09 01:01:38:05 01:01:40:18
* FROM CLIP NAME:  Episode 21 Mr. Thousand Satellites 

043  AX       V     C        00:12:23:16 00:12:24:04 01:01:40:18 01:01:41:06
* FROM CLIP NAME:  Episode 21 Mr. Thousand Satellites  

043  AX       A     C        00:12:23:16 00:12:24:04 01:01:40:18 01:01:41:06
* FROM CLIP NAME:  Episode 21 Mr. Thousand Satellites 

044  AX       V     C        00:12:24:10 00:12:25:11 01:01:41:06 01:01:42:07
* FROM CLIP NAME:  Episode 21 Mr. Thousand Satellites  

044  AX       A     C        00:12:24:10 00:12:25:11 01:01:41:06 01:01:42:07
* FROM CLIP NAME:  Episode 21 Mr. Thousand Satellites 

045  AX       V     C        00:12:25:17 00:12:27:00 01:01:42:07 01:01:43:14
* FROM CLIP NAME:  Episode 21 Mr. Thousand Satellites  

045  AX       A     C        00:12:25:17 00:12:27:00 01:01:42:07 01:01:43:14
* FROM CLIP NAME:  Episode 21 Mr. Thousand Satellites 

046  AX       V     C        00:12:27:06 00:12:27:18 01:01:43:14 01:01:44:02
* FROM CLIP NAME:  Episode 21 Mr. Thousand Satellites  

046  AX       A     C        00:12:27:06 00:12:27:18 01:01:43:14 01:01:44:02
* FROM CLIP NAME:  Episode 21 Mr. Thousand Satellites 

047  AX       V     C        00:12:28:00 00:12:28:19 01:01:44:02 01:01:44:21
* FROM CLIP NAME:  Episode 21 Mr. Thousand Satellites  

047  AX       A     C        00:12:28:00 00:12:28:19 01:01:44:02 01:01:44:21
* FROM CLIP NAME:  Episode 21 Mr. Thousand Satellites 

048  AX       V     C        00:12:29:01 00:12:30:08 01:01:44:21 01:01:46:04
* FROM CLIP NAME:  Episode 21 Mr. Thousand Satellites  

048  AX       A     C        00:12:29:01 00:12:30:08 01:01:44:21 01:01:46:04
* FROM CLIP NAME:  Episode 21 Mr. Thousand Satellites 

049  AX       V     C        00:12:30:14 00:12:32:03 01:01:46:04 01:01:47:17
* FROM CLIP NAME:  Episode 21 Mr. Thousand Satellites  

049  AX       A     C        00:12:30:14 00:12:32:03 01:01:46:04 01:01:47:17
* FROM CLIP NAME:  Episode 21 Mr. Thousand Satellites 

050  AX       V     C        00:12:32:09 00:12:34:04 01:01:47:17 01:01:49:12
* FROM CLIP NAME:  Episode 21 Mr. Thousand Satellites  

050  AX       A     C        00:12:32:09 00:12:34:04 01:01:47:17 01:01:49:12
* FROM CLIP NAME:  Episode 21 Mr. Thousand Satellites 

051  AX       V     C        00:12:34:16 00:12:36:05 01:01:49:12 01:01:51:01
* FROM CLIP NAME:  Episode 21 Mr. Thousand Satellites  

051  AX       A     C        00:12:34:16 00:12:36:05 01:01:49:12 01:01:51:01
* FROM CLIP NAME:  Episode 21 Mr. Thousand Satellites 

052  AX       V     C        00:12:36:17 00:12:38:00 01:01:51:01 01:01:52:08
* FROM CLIP NAME:  Episode 21 Mr. Thousand Satellites  

052  AX       A     C        00:12:36:17 00:12:38:00 01:01:51:01 01:01:52:08
* FROM CLIP NAME:  Episode 21 Mr. Thousand Satellites 

053  AX       V     C        00:12:38:12 00:12:40:19 01:01:52:08 01:01:54:15
* FROM CLIP NAME:  Episode 21 Mr. Thousand Satellites  

053  AX       A     C        00:12:38:12 00:12:40:19 01:01:52:08 01:01:54:15
* FROM CLIP NAME:  Episode 21 Mr. Thousand Satellites 

054  AX       V     C        00:12:41:02 00:12:41:14 01:01:54:15 01:01:55:03
* FROM CLIP NAME:  Episode 21 Mr. Thousand Satellites  

054  AX       A     C        00:12:41:02 00:12:41:14 01:01:54:15 01:01:55:03
* FROM CLIP NAME:  Episode 21 Mr. Thousand Satellites 

055  AX       V     C        00:12:41:20 00:12:42:08 01:01:55:03 01:01:55:15
* FROM CLIP NAME:  Episode 21 Mr. Thousand Satellites  

055  AX       A     C        00:12:41:20 00:12:42:08 01:01:55:03 01:01:55:15
* FROM CLIP NAME:  Episode 21 Mr. Thousand Satellites 

056  AX       V     C        00:12:42:14 00:12:43:21 01:01:55:15 01:01:56:22
* FROM CLIP NAME:  Episode 21 Mr. Thousand Satellites  

056  AX       A     C        00:12:42:14 00:12:43:21 01:01:55:15 01:01:56:22
* FROM CLIP NAME:  Episode 21 Mr. Thousand Satellites 

057  AX       V     C        00:12:44:03 00:12:45:16 01:01:56:22 01:01:58:11
* FROM CLIP NAME:  Episode 21 Mr. Thousand Satellites  

057  AX       A     C        00:12:44:03 00:12:45:16 01:01:56:22 01:01:58:11
* FROM CLIP NAME:  Episode 21 Mr. Thousand Satellites 

058  AX       V     C        00:12:46:04 00:12:47:11 01:01:58:11 01:01:59:18
* FROM CLIP NAME:  Episode 21 Mr. Thousand Satellites  

058  AX       A     C        00:12:46:04 00:12:47:11 01:01:58:11 01:01:59:18
* FROM CLIP NAME:  Episode 21 Mr. Thousand Satellites 

059  AX       V     C        00:12:47:17 00:12:49:00 01:01:59:18 01:02:01:01
* FROM CLIP NAME:  Episode 21 Mr. Thousand Satellites  

059  AX       A     C        00:12:47:17 00:12:49:00 01:01:59:18 01:02:01:01
* FROM CLIP NAME:  Episode 21 Mr. Thousand Satellites 

060  AX       V     C        00:12:49:06 00:12:50:07 01:02:01:01 01:02:02:02
* FROM CLIP NAME:  Episode 21 Mr. Thousand Satellites  

060  AX       A     C        00:12:49:06 00:12:50:07 01:02:01:01 01:02:02:02
* FROM CLIP NAME:  Episode 21 Mr. Thousand Satellites 

061  AX       V     C        00:12:50:13 00:12:51:01 01:02:02:02 01:02:02:14
* FROM CLIP NAME:  Episode 21 Mr. Thousand Satellites  

061  AX       A     C        00:12:50:13 00:12:51:01 01:02:02:02 01:02:02:14
* FROM CLIP NAME:  Episode 21 Mr. Thousand Satellites 

