TITLE: Awesome Project 1
FCM: NON-DROP FRAME

001  AX       V     C        00:03:34:21 00:03:38:05 01:00:00:00 01:00:03:09
* FROM CLIP NAME:  VfD E04 The Terahertzian  

001  AX       A     C        00:03:34:21 00:03:38:05 01:00:00:00 01:00:03:09
* FROM CLIP NAME:  VfD E04 The Terahertzian 

002  AX       V     C        00:03:38:05 00:03:43:19 01:00:03:09 01:00:08:23
* FROM CLIP NAME:  VfD E04 The Terahertzian  

002  AX       A     C        00:03:38:05 00:03:43:19 01:00:03:09 01:00:08:23
* FROM CLIP NAME:  VfD E04 The Terahertzian 

003  AX       V     C        00:03:43:19 00:03:47:16 01:00:08:23 01:00:12:20
* FROM CLIP NAME:  VfD E04 The Terahertzian  

003  AX       A     C        00:03:43:19 00:03:47:16 01:00:08:23 01:00:12:20
* FROM CLIP NAME:  VfD E04 The Terahertzian 

004  AX       V     C        00:03:47:16 00:03:50:04 01:00:12:20 01:00:15:08
* FROM CLIP NAME:  VfD E04 The Terahertzian  

004  AX       A     C        00:03:47:16 00:03:50:04 01:00:12:20 01:00:15:08
* FROM CLIP NAME:  VfD E04 The Terahertzian 

005  AX       V     C        00:03:50:04 00:03:53:21 01:00:15:08 01:00:19:00
* FROM CLIP NAME:  VfD E04 The Terahertzian  

005  AX       A     C        00:03:50:04 00:03:53:21 01:00:15:08 01:00:19:00
* FROM CLIP NAME:  VfD E04 The Terahertzian 

006  AX       V     C        00:03:53:21 00:03:56:07 01:00:19:00 01:00:21:11
* FROM CLIP NAME:  VfD E04 The Terahertzian  

006  AX       A     C        00:03:53:21 00:03:56:07 01:00:19:00 01:00:21:11
* FROM CLIP NAME:  VfD E04 The Terahertzian 

007  AX       V     C        00:03:56:07 00:03:58:14 01:00:21:11 01:00:23:18
* FROM CLIP NAME:  VfD E04 The Terahertzian  

007  AX       A     C        00:03:56:07 00:03:58:14 01:00:21:11 01:00:23:18
* FROM CLIP NAME:  VfD E04 The Terahertzian 

008  AX       V     C        00:03:58:14 00:04:00:20 01:00:23:18 01:00:25:24
* FROM CLIP NAME:  VfD E04 The Terahertzian  

008  AX       A     C        00:03:58:14 00:04:00:20 01:00:23:18 01:00:25:24
* FROM CLIP NAME:  VfD E04 The Terahertzian 

